<svg width="20" height="20" viewBox="0 0 20 20" fill="none" xmlns="http://www.w3.org/2000/svg">
<g clip-path="url(#clip0)">
<path fill-rule="evenodd" clip-rule="evenodd" d="M7.0472 2.33595H12.9245V1.13546C12.9245 0.746622 13.24 0.430922 13.6288 0.430922C14.0177 0.430922 14.3332 0.746622 14.3332 1.13546V2.33595H18.0448C18.5047 2.33595 18.9462 2.5188 19.2719 2.84421C19.597 3.16967 19.7801 3.61107 19.7801 4.07131C19.7801 6.99537 19.7801 14.7782 19.7801 17.7022C19.7801 18.1625 19.597 18.6039 19.2719 18.9293C18.9462 19.2548 18.5047 19.4376 18.0448 19.4376C14.7544 19.4376 5.21677 19.4376 1.92691 19.4376C1.46653 19.4376 1.02547 19.2548 0.699864 18.9293C0.37426 18.6039 0.19165 18.1625 0.19165 17.7022C0.19165 14.7782 0.19165 6.99537 0.19165 4.07131C0.19165 3.61107 0.37426 3.16967 0.699864 2.84421C1.02547 2.5188 1.46653 2.33595 1.92691 2.33595H5.63803V1.13546C5.63803 0.746622 5.95396 0.430922 6.34237 0.430922C6.73126 0.430922 7.0472 0.746622 7.0472 1.13546V2.33595ZM18.5723 8.7889H1.39938V17.7022C1.39938 17.8422 1.45493 17.9764 1.55397 18.0753C1.65252 18.1743 1.78682 18.2299 1.92691 18.2299C5.21677 18.2299 14.7544 18.2299 18.0448 18.2299C18.1844 18.2299 18.3187 18.1743 18.4177 18.0753C18.5168 17.9764 18.5723 17.8422 18.5723 17.7022V8.7889ZM5.63803 3.54368H1.92691C1.78682 3.54368 1.65252 3.59928 1.55397 3.69822C1.45493 3.79716 1.39938 3.93136 1.39938 4.07131V7.58117H18.5723V4.07131C18.5723 3.93136 18.5168 3.79716 18.4177 3.69822C18.3187 3.59928 18.1844 3.54368 18.0448 3.54368H14.3332V5.20295C14.3332 5.59179 14.0177 5.90749 13.6288 5.90749C13.24 5.90749 12.9245 5.59179 12.9245 5.20295V3.54368H7.0472V5.20295C7.0472 5.59179 6.73126 5.90749 6.34237 5.90749C5.95396 5.90749 5.63803 5.59179 5.63803 5.20295V3.54368Z" fill="#A8ABB6"/>
<path fill-rule="evenodd" clip-rule="evenodd" d="M5.22148 12.283H14.99C15.2675 12.283 15.4932 12.0575 15.4932 11.7798C15.4932 11.5021 15.2675 11.2766 14.99 11.2766H5.22148C4.94369 11.2766 4.71802 11.5021 4.71802 11.7798C4.71802 12.0575 4.94369 12.283 5.22148 12.283Z" fill="#A8ABB6"/>
<path fill-rule="evenodd" clip-rule="evenodd" d="M7.22684 15.1742H12.9851C13.2628 15.1742 13.4883 14.9487 13.4883 14.671C13.4883 14.3933 13.2628 14.1678 12.9851 14.1678H7.22684C6.94898 14.1678 6.72363 14.3933 6.72363 14.671C6.72363 14.9487 6.94898 15.1742 7.22684 15.1742Z" fill="#A8ABB6"/>
</g>
<defs>
<clipPath id="clip0">
<rect width="20" height="20" fill="white"/>
</clipPath>
</defs>
</svg>
