<svg width="20" height="20" viewBox="0 0 20 20" fill="none" xmlns="http://www.w3.org/2000/svg">
<g clip-path="url(#clip0)">
<path fill-rule="evenodd" clip-rule="evenodd" d="M9.2951 1.42254C9.2951 0.772628 8.76811 0.245369 8.11802 0.245369C6.65967 0.245369 2.82097 0.245369 1.36262 0.245369C0.712537 0.245369 0.185547 0.772628 0.185547 1.42254C0.185547 4.15251 0.185547 15.8169 0.185547 18.5469C0.185547 19.1973 0.712537 19.7241 1.36262 19.7241C2.82097 19.7241 6.65967 19.7241 8.11802 19.7241C8.76811 19.7241 9.2951 19.1973 9.2951 18.5469V1.42254ZM1.39328 1.45331V18.5166H8.08737V1.45331H1.39328Z" fill="#A8ABB6"/>
<path fill-rule="evenodd" clip-rule="evenodd" d="M19.7852 11.798C19.7852 11.4859 19.6612 11.1864 19.4404 10.9658C19.2197 10.745 18.9203 10.621 18.6081 10.621C17.1518 10.621 13.3219 10.621 11.8656 10.621C11.5534 10.621 11.254 10.745 11.0332 10.9658C10.8125 11.1864 10.6885 11.4859 10.6885 11.798C10.6885 13.2554 10.6885 17.0896 10.6885 18.547C10.6885 18.8591 10.8125 19.1586 11.0332 19.3794C11.254 19.6002 11.5534 19.7241 11.8656 19.7241C13.3219 19.7241 17.1518 19.7241 18.6081 19.7241C18.9203 19.7241 19.2197 19.6002 19.4404 19.3794C19.6612 19.1586 19.7852 18.8591 19.7852 18.547C19.7852 17.0896 19.7852 13.2554 19.7852 11.798ZM11.8962 18.5163H18.5775V11.8287H11.8962V18.5163Z" fill="#A8ABB6"/>
<path fill-rule="evenodd" clip-rule="evenodd" d="M19.7852 1.42251C19.7852 1.11038 19.6612 0.810895 19.4404 0.590168C19.2197 0.369442 18.9203 0.245369 18.6081 0.245369C17.1518 0.245369 13.3219 0.245369 11.8656 0.245369C11.5534 0.245369 11.254 0.369442 11.0332 0.590168C10.8125 0.810895 10.6885 1.11038 10.6885 1.42251C10.6885 2.87308 10.6885 6.67658 10.6885 8.12695C10.6885 8.43928 10.8125 8.73857 11.0332 8.9593C11.254 9.18002 11.5534 9.30409 11.8656 9.30409C13.3219 9.30409 17.1518 9.30409 18.6081 9.30409C18.9203 9.30409 19.2197 9.18002 19.4404 8.9593C19.6612 8.73857 19.7852 8.43928 19.7852 8.12695C19.7852 6.67658 19.7852 2.87308 19.7852 1.42251ZM11.8962 8.09642H18.5775V1.45324H11.8962V8.09642Z" fill="#A8ABB6"/>
</g>
<defs>
<clipPath id="clip0">
<rect width="20" height="20" fill="white"/>
</clipPath>
</defs>
</svg>
