<svg width="28" height="22" viewBox="0 0 28 22" fill="none" xmlns="http://www.w3.org/2000/svg">
<path d="M27.9644 4.29467C27.9189 4.27649 27.8627 4.27891 27.7834 4.37467C27.7106 4.46276 27.2109 5.09025 27.1799 5.11611C27.1485 5.14116 27.1142 5.11732 27.1361 5.06884C27.1576 5.01995 27.6767 3.94032 27.7333 3.79042C27.7887 3.64455 27.7321 3.59647 27.6912 3.58031C27.6403 3.56091 27.5378 3.58395 27.4878 3.70961C27.4395 3.83123 26.9104 4.93671 26.8711 4.97025C26.8323 5.00378 26.7657 4.96742 26.805 4.78317C26.8443 4.59933 27.1559 3.58354 27.1828 3.48132C27.2121 3.3702 27.1646 3.25222 27.0749 3.2405C26.9852 3.22878 26.924 3.27242 26.8835 3.43243C26.8517 3.55607 26.7219 3.95527 26.5867 4.5165C26.4512 5.07813 26.3668 4.93105 26.3598 4.79691C26.3528 4.66236 26.4979 3.84739 26.5173 3.7593C26.5376 3.67122 26.5756 3.46354 26.4536 3.46152C26.3321 3.4595 26.3098 3.65869 26.2482 3.87527C26.1862 4.09224 26.018 5.09106 25.9486 5.15773C25.8791 5.2248 25.8737 5.12177 25.8345 4.98924C25.7956 4.8563 25.8241 4.61711 25.8105 4.51488C25.7973 4.41225 25.8229 4.28457 25.6919 4.25912C25.5608 4.23366 25.5489 4.47205 25.5489 4.47205L25.536 5.33632L25.548 5.6434C25.5571 5.88987 25.5782 6.26846 25.5782 6.26846C25.5803 6.44059 25.6051 6.57837 25.5675 6.65272C25.4864 6.81151 25.2426 7.02364 24.7544 7.79093C24.2667 8.55903 24.2125 8.29438 24.2125 8.29438C24.1038 7.23496 23.5082 7.02323 23.5082 6.81111C23.5082 6.59938 23.4813 6.01674 23.4813 6.01674C23.4813 6.01674 23.6318 6.00341 23.7384 5.92381C23.8455 5.84461 24.294 5.32783 24.294 5.32783L24.4973 5.44541C24.4973 5.44541 24.6478 5.52663 24.6631 5.40258C24.6788 5.27531 24.7205 5.05712 24.8222 4.89105C24.9851 4.6264 25.3017 4.35447 25.6757 3.83163C25.8481 3.59081 25.7568 2.73261 24.8358 1.93784C23.9145 1.14347 23.2643 1.56692 22.7225 1.93784C22.1806 2.30876 21.7271 3.32172 21.7271 3.32172C21.1852 3.00373 19.9862 1.32853 19.0111 0.534568C18.036 -0.260202 17.5301 0.0198064 17.0738 0.189912C16.5319 0.392342 15.4076 0.70629 14.4726 0.95761C13.8803 1.11761 13.5922 1.09014 13.1859 1.09014C12.7796 1.09014 11.8281 1.13014 11.4755 1.1564C11.123 1.18267 11.1631 1.34873 11.3941 1.35803C11.8624 1.37621 12.5833 1.30509 12.5833 1.30509C12.5833 1.30509 11.8591 1.50793 11.1912 1.73258C10.8663 1.84208 10.8965 2.11966 11.3226 1.95279C11.7033 1.80369 12.5833 1.50429 12.6643 1.58349C12.7453 1.66268 11.5842 2.30876 11.1507 2.62634C10.7171 2.94393 11.0184 3.05019 11.154 2.99726C11.2895 2.94433 12.6982 1.88491 12.8879 1.99077C13.0776 2.09704 11.8785 2.96413 11.6074 3.28171C11.3367 3.5997 11.3974 3.8183 11.7769 3.50031C12.1559 3.18272 14.1577 1.48409 13.0706 3.18272C12.7106 3.74516 13.0231 3.89789 13.2128 3.57991C13.4025 3.26192 14.1068 2.52048 14.2697 2.25583C14.4321 1.99117 14.974 1.69945 15.4076 1.67319C15.8408 1.64692 18.022 1.56692 18.022 1.56692C18.0488 1.91158 18.3336 2.49422 18.6585 2.971C18.9838 3.44778 18.5502 3.89789 17.8459 4.16255C17.1412 4.4272 15.9495 5.48663 15.4886 5.77835C15.0282 6.06967 13.9837 6.9998 13.4298 7.12909C12.8474 7.26445 12.1146 7.06081 11.1812 8.00306C10.3418 8.85076 11.0184 9.433 10.5038 9.83018C9.98917 10.2274 8.87812 11.1013 8.49868 11.4985C8.11924 11.8953 7.49634 12.6371 7.0086 13.061C6.52086 13.4848 4.99771 13.9471 4.56412 14.1588C4.13053 14.3709 3.75728 14.9677 3.59484 15.2328C3.43199 15.4978 3.13397 15.7362 2.53794 16.3714C1.94191 17.0073 1.48145 17.1661 1.15615 17.1391C0.830854 17.1132 0.234822 17.0603 0.07238 17.6159C-0.090475 18.1722 0.07238 19.3638 0.07238 20.0268C0.07238 20.6891 0.234822 21.2184 0.343116 21.6156C0.451411 22.0131 0.857721 22.0786 1.53518 21.9202C2.21264 21.7606 1.64348 21.4572 1.48103 21.1121C1.31818 20.7679 1.48103 20.5036 1.48103 20.1327C1.48103 19.7618 1.48103 19.3113 1.80633 18.967C2.13163 18.6227 2.61895 18.0664 3.29641 17.59C3.97387 17.1136 3.67544 17.3249 4.94935 16.6894C6.22284 16.0534 6.12901 15.5806 7.03546 15.1528C7.14252 15.1022 7.19625 15.1669 7.35043 15.0998C7.52858 15.0226 7.80965 14.8125 7.95555 14.7685C9.05048 14.4388 10.0636 13.7996 10.5575 13.4844C11.1808 13.0876 12.5895 12.0016 12.5895 12.0016C12.5895 12.0016 12.9148 11.5777 13.1855 11.7894C13.4563 12.0016 13.7547 12.1074 14.3776 12.7426C15.0009 13.3786 16.2471 14.0408 16.2471 14.0408C14.7975 14.1467 14.8653 14.703 14.54 14.8614C14.2151 15.021 13.5108 15.0736 12.9416 15.2853C12.3729 15.4974 11.2623 15.6295 11.0184 15.6295C10.7741 15.6295 9.93461 15.3382 9.98876 16.2918C10.0429 17.2457 10.3136 16.8219 10.7741 17.6959C11.4148 18.9112 11.533 19.2325 11.9934 19.6563C12.4539 20.0794 12.7337 19.7133 12.7337 19.7133C12.7337 19.7133 12.8338 19.5759 12.766 19.4458C12.6035 19.1327 12.3026 18.4987 12.2642 18.1997C12.21 17.7759 12.3729 17.1136 12.427 16.8486C12.4812 16.5843 13.2938 16.4776 13.5918 16.3988C13.8898 16.3193 15.7321 16.3193 16.4641 16.2392C17.1965 16.1605 18.7395 15.7095 19.3083 15.4715C19.8774 15.2332 19.6249 14.8408 19.5319 14.2768C19.4306 13.6606 18.3262 12.3022 18.1844 11.9494C17.9401 11.3401 17.6297 10.8383 17.0734 10.2936C16.152 9.3934 16.0189 9.3833 16.3013 9.22127C16.7183 8.98208 17.7372 8.77116 18.2249 8.6653C18.7127 8.55903 19.9857 8.02973 20.5008 7.8976C21.0154 7.76507 21.9904 7.07616 21.9904 7.07616C21.9904 7.07616 22.2343 7.818 22.424 8.16225C22.6137 8.50691 23.2639 9.30087 23.3995 9.80432C23.5347 10.3074 23.9683 10.387 24.2663 10.3074C24.5643 10.2282 25.4315 8.93036 25.7295 8.48024C26.0275 8.03013 26.2714 7.0499 26.3797 6.86484C26.4446 6.75333 26.5433 6.68787 26.6384 6.57635C26.6392 6.57595 26.6401 6.57595 26.6405 6.57514C26.8356 6.42564 27.16 5.68421 27.1873 5.59127C27.2142 5.49875 27.2828 5.34561 27.358 5.26359C27.4742 5.13752 27.8855 4.57145 27.9334 4.51286C27.9933 4.44134 28.0318 4.32255 27.9644 4.29467Z" fill="#282C34"/>
</svg>
