<svg width="14" height="14" viewBox="0 0 14 14" fill="none" xmlns="http://www.w3.org/2000/svg">
<path d="M6.7 0C10.3872 0 13.4 3.01275 13.4 6.7C13.4 10.3872 10.3872 13.4 6.7 13.4C3.01275 13.4 0 10.3872 0 6.7C0 3.01275 3.01275 0 6.7 0ZM6.7 12.4257C9.86264 12.4257 12.4257 9.86264 12.4257 6.7C12.4257 3.53736 9.86264 0.974273 6.7 0.974273C3.53736 0.974273 0.974273 3.53736 0.974273 6.7C0.974273 9.86264 3.53736 12.4257 6.7 12.4257Z" fill="#A8ABB6"/>
<path d="M7.28458 5.00623H6.11545V10.4472H7.28458V5.00623Z" fill="#A8ABB6"/>
<path d="M7.28456 2.96777H6.11543V4.33176H7.28456V2.96777Z" fill="#A8ABB6"/>
</svg>
