<svg width="12" height="12" viewBox="0 0 12 12" fill="none" xmlns="http://www.w3.org/2000/svg">
<path d="M9.248 8.6824C10.0683 7.7296 10.5171 6.52893 10.5171 5.25867C10.5171 3.854 9.97 2.5336 8.9768 1.54027C7.98373 0.547067 6.6632 0 5.25853 0C3.85387 0 2.53347 0.547067 1.54027 1.54027C0.547067 2.53347 0 3.85387 0 5.25853C0 6.66307 0.547067 7.9836 1.54027 8.9768C2.53347 9.97 3.854 10.5171 5.25867 10.5171C6.52893 10.5171 7.72973 10.0683 8.6824 9.248L11.3172 11.8828C11.3953 11.9609 11.4976 12 11.6 12C11.7024 12 11.8047 11.9609 11.8828 11.8828C12.0391 11.7267 12.0391 11.4733 11.8828 11.3172L9.248 8.6824ZM8.4112 8.4112C7.5692 9.2532 6.44947 9.71707 5.25853 9.71707C4.0676 9.71707 2.948 9.2532 2.10573 8.4112C1.26387 7.5692 0.8 6.44947 0.8 5.25853C0.8 4.0676 1.26387 2.948 2.10587 2.10573C2.948 1.26387 4.06773 0.8 5.25853 0.8C6.44933 0.8 7.56907 1.26387 8.4112 2.10587C9.2532 2.948 9.71707 4.06773 9.71707 5.25867C9.71707 6.4496 9.2532 7.5692 8.4112 8.4112Z" fill="#646D77"/>
</svg>
