<svg width="20" height="18" viewBox="0 0 20 18" fill="none" xmlns="http://www.w3.org/2000/svg">
<path d="M7.54212 7.03188H4.89383C5.15885 8.47623 7.27095 8.50939 7.54212 7.03188ZM16.8428 10.0436V14.7074C14.6729 14.7074 12.5028 14.7074 10.3329 14.7074V10.0436C12.5028 10.0433 14.6729 10.0433 16.8428 10.0436V10.0436ZM15.7531 11.1331H11.4227V13.6177H15.7531V11.1331ZM8.83217 10.0471V15.9627H17.7951V9.21511C16.9829 9.29213 16.1895 8.95866 15.6731 8.32219C14.6959 9.52639 12.8681 9.52639 11.8909 8.32219C10.9141 9.52639 9.08622 9.52639 8.10905 8.32219C7.13403 9.52372 5.30192 9.52372 4.3269 8.32219C3.79606 8.97657 2.96197 9.31406 2.12414 9.20629V15.9627H3.68695V10.0471C5.40194 10.0471 7.11718 10.0471 8.83217 10.0471V10.0471ZM7.74242 11.1368H4.7767V15.9627H7.74242V11.1368ZM18.8848 8.83511V17.0522C12.9347 17.0522 6.98454 17.0522 1.03466 17.0522V8.78029C0.135316 8.14435 0.0192544 7.40413 0 6.40905L2.17629 0H17.824L20 6.40905C19.9802 7.43675 19.8412 8.21442 18.8848 8.83511V8.83511ZM2.95475 1.08975L1.30716 5.94213C7.10248 5.94213 12.8975 5.94213 18.6928 5.94213L17.0452 1.08975H2.95475ZM18.8883 7.03188H16.2398C16.5083 8.49388 18.6201 8.49388 18.8883 7.03188ZM15.1064 7.03188H12.4579C12.7264 8.49388 14.8379 8.49388 15.1064 7.03188ZM11.3243 7.03188H8.67572C8.94421 8.49388 11.0558 8.49388 11.3243 7.03188ZM3.76023 7.03188H1.11168C1.37696 8.47623 3.48879 8.50939 3.76023 7.03188Z" fill="#A8ABB6"/>
</svg>
