<svg width="19" height="22" viewBox="0 0 19 22" fill="none" xmlns="http://www.w3.org/2000/svg">
<path d="M12.7835 18.2692C12.6887 20.0004 11.2549 21.375 9.5 21.375C7.74514 21.375 6.31132 20.0004 6.21653 18.2692H2.19592C0.983221 18.2692 0 17.2882 0 16.0769C0 14.8673 0.982396 13.8846 2.19307 13.8846C2.19165 13.8846 2.19231 9.49973 2.19231 9.49973C2.19231 6.41125 4.12367 3.70343 6.94231 2.65225V2.55596C6.94231 1.14477 8.08905 0 9.5 0C10.9125 0 12.0577 1.14408 12.0577 2.55596V2.65231C14.8763 3.70363 16.8077 6.4119 16.8077 9.49973V13.884C18.0158 13.8846 19 14.8669 19 16.0769C19 17.2869 18.016 18.2692 16.8041 18.2692H12.7835ZM11.3179 18.2692H7.6821C7.77376 19.1924 8.55268 19.9135 9.5 19.9135C10.4473 19.9135 11.2262 19.1924 11.3179 18.2692ZM7.8756 3.88216C5.39446 4.59779 3.65385 6.87737 3.65385 9.49973V13.884C3.65385 14.6909 2.99903 15.3462 2.19307 15.3462C1.78966 15.3462 1.46154 15.6744 1.46154 16.0769C1.46154 16.4803 1.78967 16.8077 2.19592 16.8077H16.8041C17.2094 16.8077 17.5385 16.4792 17.5385 16.0769C17.5385 15.6747 17.2093 15.3462 16.8069 15.3462C15.9994 15.3462 15.3462 14.6933 15.3462 13.884V9.49973C15.3462 6.878 13.6054 4.5979 11.1244 3.88218L10.5962 3.7298V2.55596C10.5962 1.95159 10.1056 1.46154 9.5 1.46154C8.89567 1.46154 8.40385 1.95252 8.40385 2.55596V3.72979L7.8756 3.88216Z" fill="#A8ABB6"/>
</svg>
