<svg width="20" height="20" viewBox="0 0 20 20" fill="none" xmlns="http://www.w3.org/2000/svg">
<path fill-rule="evenodd" clip-rule="evenodd" d="M5.60866 0.984011L5.6697 0.784629C5.6819 0.764286 5.69409 0.745998 5.7063 0.729724C5.71444 0.719552 5.71852 0.709376 5.72666 0.699204C5.74701 0.676827 5.76734 0.656472 5.78971 0.636129C5.79175 0.634095 5.79582 0.630043 5.79786 0.628009C5.87923 0.560877 5.98093 0.518139 6.08875 0.507967C7.55751 0.365567 8.88591 0.809044 9.83389 1.75499C10.5622 2.4853 10.9935 3.4394 11.087 4.50944C11.6953 4.03748 12.4602 3.78117 13.3003 3.78117C13.5933 3.78117 13.8313 4.01918 13.8313 4.31212C13.8313 4.60506 13.5933 4.84103 13.3003 4.84103C12.5436 4.84103 11.8763 5.1238 11.4247 5.63645C11.0768 6.02907 10.8816 6.52542 10.8388 7.09298C10.9121 7.03602 10.9833 6.9689 11.0463 6.89363C11.0504 6.88956 11.0565 6.88347 11.0606 6.8794C11.0626 6.87533 11.0667 6.87125 11.0707 6.86718C12.2506 5.64864 13.8842 5.31501 15.4384 5.97208C17.3934 6.79801 18.6627 8.86283 18.5976 11.1148V11.1229C18.4898 15.9157 16.2155 17.7873 13.7743 19.0953C13.4712 19.2581 13.0094 19.5042 12.3707 19.5042C11.9882 19.5042 11.5427 19.4167 11.0301 19.1686C10.6476 18.9834 10.4727 18.9183 10.1451 18.8899C10.0475 18.8878 9.79932 18.9224 9.33143 19.1625C8.81879 19.4269 8.36309 19.5185 7.97251 19.5185C7.27678 19.5185 6.79059 19.2255 6.55257 19.0831C3.2204 17.0672 1.83098 14.7623 1.75368 11.1372V11.1087C1.61331 8.77331 3.27328 6.80413 4.99837 6.06161C6.58308 5.38012 8.18814 5.68526 9.28869 6.87533C9.28869 6.87736 9.29073 6.87736 9.29073 6.8794C9.44127 7.04011 9.60401 7.15809 9.77286 7.23336C9.78303 6.80006 9.85832 6.38709 9.99665 6.00668C8.76997 5.9904 7.67143 5.54896 6.85568 4.73321C5.9077 3.78522 5.46422 2.45481 5.60866 0.984011V0.992131V0.984011ZM13.3085 18.2348C12.9158 18.4444 12.3788 18.7312 11.4573 18.2877C10.9894 18.0619 10.7005 17.9541 10.2143 17.9134C10.2082 17.9114 10.2041 17.9134 10.2001 17.9134C10.196 17.9134 10.194 17.9114 10.1899 17.9114C9.83796 17.8971 9.39855 18.0273 8.88387 18.2918C7.94199 18.776 7.36833 18.4301 7.06115 18.243C4.51624 16.705 2.80743 14.9006 2.73216 11.0965C2.73216 11.0924 2.73012 11.0883 2.73012 11.0843C2.73012 11.0802 2.73216 11.0782 2.73216 11.0741C2.60603 9.1985 4.00564 7.55682 5.38489 6.96077C6.58919 6.44406 7.75078 6.65359 8.56857 7.54054C9.02628 8.03488 9.59995 8.30544 10.1919 8.30544C10.2062 8.30544 10.2204 8.30544 10.2346 8.30544C10.2631 8.30544 10.2916 8.30137 10.3201 8.29933C10.3242 8.29933 10.3262 8.29933 10.3282 8.29933C10.3465 8.29933 10.3669 8.29933 10.3852 8.29526C10.3913 8.29526 10.3954 8.29322 10.3994 8.29322C10.9202 8.23626 11.4003 7.9779 11.7726 7.54866H11.7746C12.6758 6.61899 13.872 6.37285 15.058 6.87533C16.6203 7.53444 17.672 9.26765 17.6192 11.0904C17.6192 11.0924 17.6192 11.0924 17.6192 11.0924V11.0945C17.5276 15.1508 15.831 16.882 13.3085 18.2348ZM7.54938 4.04154C6.89231 3.38446 6.55055 2.48125 6.56479 1.4641C7.57991 1.4519 8.48515 1.79365 9.14019 2.44869C9.79727 3.10577 10.139 4.00901 10.1248 5.02616C9.1097 5.03836 8.20443 4.69658 7.54938 4.04154Z" fill="#A8ABB6"/>
</svg>
