<svg width="20" height="15" viewBox="0 0 20 15" fill="none" xmlns="http://www.w3.org/2000/svg">
<path fill-rule="evenodd" clip-rule="evenodd" d="M2.75106 6.87042C2.65053 6.77844 2.59277 6.65009 2.59277 6.51319C2.59277 6.2672 2.78101 6.05757 3.02486 6.02976L5.05909 5.73458L5.97032 3.89073C6.0516 3.72388 6.22057 3.61906 6.40667 3.61906C6.59276 3.61906 6.76176 3.72388 6.84304 3.89073L7.75855 5.73458L9.79278 6.02976C10.0324 6.06399 10.212 6.27148 10.212 6.51319C10.212 6.64795 10.1564 6.77844 10.0559 6.87042L8.57994 8.3057L8.9286 10.3335C8.93288 10.3592 8.93502 10.387 8.93502 10.4148C8.93502 10.6822 8.7147 10.9025 8.44732 10.9025C8.36817 10.9025 8.29116 10.8832 8.22271 10.8469L6.40027 9.8886L4.57995 10.8383C4.5115 10.8747 4.43234 10.8939 4.35534 10.8939C4.08796 10.8939 3.86763 10.6736 3.86763 10.4062C3.86763 10.3784 3.86978 10.3506 3.87405 10.325L4.22272 8.29714L2.75106 6.87042ZM5.4377 6.60304C5.57888 6.58379 5.69867 6.49607 5.7607 6.36986L6.40241 5.07362L7.04412 6.36986C7.10829 6.49607 7.22806 6.58379 7.36709 6.60304L8.79812 6.81694L7.76284 7.82656C7.66658 7.92496 7.62379 8.06399 7.64518 8.19875L7.88903 9.62336L6.60561 8.94955C6.48154 8.88538 6.33395 8.88538 6.20775 8.94955L4.92433 9.62336L5.16818 8.19875C5.19171 8.06185 5.14678 7.91853 5.0441 7.82014L4.00881 6.81052L5.4377 6.60304ZM2.74892 6.87042L2.75106 6.87256L2.74892 6.87042Z" fill="#A8ABB6"/>
<path fill-rule="evenodd" clip-rule="evenodd" d="M20 13.923V0.588235C20 0.26738 19.7348 0 19.4118 0H0.588235C0.26738 0 0 0.26738 0 0.588235V13.923C0 14.246 0.26738 14.5112 0.588235 14.5112H19.4118C19.7348 14.5112 20 14.246 20 13.923ZM1.17647 1.17647V13.3348H18.8235V1.17647H1.17647Z" fill="#A8ABB6"/>
<path fill-rule="evenodd" clip-rule="evenodd" d="M17.3674 5.65124C17.3674 5.51648 17.2583 5.40527 17.1214 5.40527H11.9171C11.7824 5.40527 11.6711 5.51648 11.6711 5.65124V6.07905C11.6711 6.21595 11.7824 6.32504 11.9171 6.32504H17.1214C17.2583 6.32504 17.3674 6.21595 17.3674 6.07905V5.65124Z" fill="#A8ABB6"/>
<path fill-rule="evenodd" clip-rule="evenodd" d="M17.3674 8.43277C17.3674 8.29801 17.2583 8.18681 17.1214 8.18681H11.9171C11.7824 8.18681 11.6711 8.29801 11.6711 8.43277V8.86058C11.6711 8.99748 11.7824 9.10658 11.9171 9.10658H17.1214C17.2583 9.10658 17.3674 8.99748 17.3674 8.86058V8.43277Z" fill="#A8ABB6"/>
</svg>
