<svg width="20" height="20" viewBox="0 0 20 20" fill="none" xmlns="http://www.w3.org/2000/svg">
<path fill-rule="evenodd" clip-rule="evenodd" d="M10.0002 9.30086C3.2278 9.30086 1.15322 14.9411 0.789799 16.8435C0.549529 18.0974 0.642531 18.6127 0.719176 18.8227C0.844909 19.1664 1.0361 19.2439 1.1136 19.2802C1.22642 19.3331 1.30135 19.3362 1.31513 19.3378C1.31944 19.3383 1.322 19.3385 1.322 19.3385L1.36075 19.3417H18.6395L18.6774 19.3388C18.6774 19.3388 18.6792 19.3385 18.6843 19.338C18.6972 19.3365 18.7722 19.3336 18.885 19.2813C18.9625 19.2452 19.1554 19.1682 19.282 18.8243C19.3595 18.6144 19.4525 18.0985 19.2114 16.8429C18.8488 14.9591 16.7725 9.30086 10.0002 9.30086ZM18.1495 18.1322C18.1426 17.9058 18.1142 17.5451 18.0238 17.0713C17.7077 15.4314 15.8958 10.5104 10.0002 10.5104C4.10449 10.5104 2.29429 15.4145 1.97737 17.0707C1.88695 17.5445 1.8594 17.9054 1.85251 18.1322H18.1495Z" fill="#A8ABB6"/>
<path fill-rule="evenodd" clip-rule="evenodd" d="M10.0018 0.65892C7.81523 0.65892 6.03931 2.43453 6.03931 4.62157C6.03931 6.8086 7.81523 8.58414 10.0018 8.58414C12.189 8.58414 13.965 6.8086 13.965 4.62157C13.965 2.43453 12.189 0.65892 10.0018 0.65892ZM10.0018 1.86844C11.5215 1.86844 12.7554 3.10207 12.7554 4.62157C12.7554 6.141 11.5215 7.37463 10.0018 7.37463C8.48277 7.37463 7.24888 6.141 7.24888 4.62157C7.24888 3.10207 8.48277 1.86844 10.0018 1.86844Z" fill="#A8ABB6"/>
</svg>
