<svg width="20" height="20" viewBox="0 0 20 20" fill="none" xmlns="http://www.w3.org/2000/svg">
<g clip-path="url(#clip0)">
<path fill-rule="evenodd" clip-rule="evenodd" d="M12.0078 1.68673C11.916 1.13588 11.4681 0.713884 10.9133 0.654667C10.2936 0.593942 9.67518 0.593941 9.06072 0.654731C8.50134 0.714407 8.05345 1.13627 7.96164 1.6868C7.91377 1.9655 7.85015 2.24479 7.77211 2.52081C7.76949 2.52993 7.75966 2.53924 7.74785 2.54272C7.24684 2.69315 6.7655 2.89257 6.30711 3.13856C6.29269 3.14636 6.28022 3.14636 6.26907 3.14046C6.02053 3.00235 5.7792 2.85001 5.54575 2.68489C5.09326 2.36192 4.47815 2.38008 4.04402 2.73086C3.56268 3.1259 3.12528 3.56337 2.73444 4.04064C2.38097 4.47851 2.3626 5.09323 2.68655 5.54749C2.84984 5.77872 3.00265 6.02103 3.14233 6.2716C3.14692 6.27993 3.14692 6.29304 3.14102 6.30393C2.89248 6.76481 2.69311 7.24628 2.5436 7.74395C2.53901 7.75969 2.52983 7.76887 2.51803 7.77222C2.24457 7.85025 1.96587 7.91353 1.68388 7.96186C1.13565 8.05328 0.713973 8.50105 0.654298 9.05629C0.593966 9.67567 0.593967 10.2943 0.654954 10.9085C0.71463 11.468 1.13629 11.9156 1.68649 12.0074C1.9652 12.0558 2.24457 12.1192 2.52065 12.1975C2.52983 12.2002 2.539 12.2095 2.54228 12.2213C2.69311 12.7227 2.89247 13.2041 3.13839 13.662C3.14626 13.6764 3.14626 13.6894 3.14036 13.7001C3.00199 13.9485 2.84985 14.1902 2.6846 14.4238C2.36196 14.8761 2.37966 15.491 2.7305 15.9256C3.12593 16.4065 3.56334 16.8439 4.04074 17.2352C4.47815 17.5887 5.09326 17.6068 5.54772 17.2825C5.77855 17.1196 6.02119 16.9669 6.2717 16.8272C6.27957 16.8227 6.29334 16.8226 6.30383 16.8286C6.76484 17.0767 7.24618 17.2761 7.74392 17.4259C7.75965 17.4306 7.76883 17.4398 7.77211 17.4515C7.85015 17.7248 7.91377 18.0035 7.96164 18.2854C8.05345 18.8335 8.50068 19.2555 9.05613 19.3148C9.67584 19.3755 10.2942 19.3755 10.9087 19.3147C11.4681 19.255 11.9153 18.8332 12.0071 18.2826C12.0557 18.0039 12.1193 17.7246 12.1973 17.4486C12.1999 17.4395 12.2091 17.4302 12.2216 17.4267C12.7226 17.2763 13.2039 17.0768 13.6617 16.8309C13.6761 16.8231 13.6892 16.8231 13.7003 16.829C13.9482 16.9671 14.1902 17.1194 14.4237 17.2845C14.8762 17.6075 15.4913 17.5893 15.9254 17.2386C16.4067 16.8435 16.8441 16.4061 17.235 15.9288C17.5884 15.4909 17.6068 14.8762 17.2822 14.4219C17.1196 14.1907 16.9668 13.9484 16.8271 13.6978C16.8225 13.6895 16.8225 13.6764 16.8284 13.6655C17.0763 13.2046 17.2763 12.7231 17.4258 12.2255C17.4304 12.2097 17.4396 12.2005 17.4514 12.1972C17.7249 12.1192 18.0036 12.0559 18.2855 12.0076C18.8338 11.9161 19.2554 11.4684 19.3144 10.9131C19.3754 10.2937 19.3754 9.67509 19.3144 9.06088C19.2548 8.50137 18.8331 8.05381 18.2823 7.962C18.0036 7.91367 17.7248 7.85025 17.4488 7.77189C17.4396 7.76926 17.4297 7.75995 17.4265 7.74808C17.2763 7.24674 17.0769 6.76533 16.831 6.3074C16.8232 6.29298 16.8232 6.27999 16.8291 6.2693C16.9668 6.02089 17.1196 5.77917 17.2848 5.54559C17.6075 5.09336 17.5891 4.47838 17.2383 4.04386C16.8435 3.56291 16.4061 3.12551 15.9287 2.7342C15.4906 2.38074 14.8762 2.36257 14.4217 2.68692C14.1909 2.84982 13.9482 3.00248 13.6977 3.14223C13.6892 3.14682 13.6761 3.14682 13.6656 3.14085C13.2046 2.89277 12.7232 2.69335 12.2255 2.5435C12.2098 2.53885 12.2006 2.52967 12.1973 2.51793C12.1193 2.2446 12.0557 1.96596 12.0071 1.68404L12.0078 1.68673ZM10.8169 1.88812C10.8726 2.21306 10.9461 2.53419 11.0366 2.85139C11.1546 3.26158 11.4733 3.58134 11.8812 3.70108C12.297 3.8264 12.7036 3.99468 13.0898 4.20262C13.4597 4.40467 13.9115 4.40368 14.2833 4.19836C14.5732 4.03664 14.8519 3.86149 15.1208 3.67203C15.1365 3.66056 15.1542 3.66108 15.1667 3.67105C15.5791 4.0093 15.9608 4.3907 16.3018 4.80646C16.309 4.81505 16.3097 4.83282 16.2998 4.846C16.1084 5.11737 15.9326 5.39594 15.7726 5.68429C15.566 6.05828 15.5654 6.50951 15.7687 6.88252C15.9746 7.26536 16.1425 7.67162 16.269 8.09178C16.3877 8.49632 16.7077 8.81483 17.1156 8.93287C17.4356 9.02363 17.7557 9.09636 18.0803 9.15256C18.0993 9.15584 18.1118 9.16863 18.1131 9.18443C18.1655 9.71535 18.1655 10.2547 18.1131 10.7902C18.1118 10.8011 18.0999 10.8141 18.0842 10.8167C17.7563 10.8729 17.435 10.9459 17.1183 11.0364C16.7077 11.155 16.3877 11.4734 16.2684 11.8812C16.1431 12.2973 15.9746 12.7036 15.7667 13.0898C15.5647 13.4598 15.5654 13.9112 15.7713 14.2836C15.9326 14.5736 16.1077 14.8517 16.2972 15.1206C16.309 15.1367 16.3084 15.1542 16.2985 15.1666C15.9601 15.5792 15.5785 15.9605 15.1627 16.3021C15.1542 16.309 15.1365 16.3095 15.1234 16.3001C14.8519 16.1082 14.5732 15.9327 14.2853 15.7724C13.9108 15.5661 13.4597 15.5652 13.0865 15.7689C12.7042 15.9745 12.2976 16.1428 11.8773 16.2689C11.4733 16.3877 11.1546 16.7075 11.0366 17.116C10.9461 17.4355 10.8733 17.756 10.8169 18.0801C10.8136 18.0996 10.8005 18.1116 10.7848 18.1133C10.2542 18.1658 9.71452 18.1658 9.1794 18.1133C9.16826 18.1121 9.15515 18.0999 9.15252 18.084C9.09613 17.7564 9.02333 17.4352 8.93283 17.118C8.81414 16.7078 8.49609 16.3881 8.0882 16.2683C7.67178 16.143 7.26586 15.9747 6.8796 15.7668C6.50975 15.5648 6.05792 15.5657 5.68609 15.7711C5.39558 15.9328 5.11753 16.1079 4.84866 16.2974C4.83293 16.3089 4.81521 16.3083 4.80275 16.2984C4.39026 15.9601 4.00861 15.5787 3.66761 15.163C3.66039 15.1544 3.65974 15.1366 3.66958 15.1234C3.86106 14.8521 4.0368 14.5735 4.19681 14.2851C4.40338 13.9111 4.40404 13.4599 4.20075 13.0869C3.99483 12.7041 3.82631 12.2978 3.7004 11.8776C3.5817 11.4731 3.26167 11.1546 2.85312 11.0365C2.53376 10.9458 2.21309 10.8731 1.88913 10.8169C1.87011 10.8136 1.85765 10.8008 1.85634 10.785C1.80322 10.2541 1.80322 9.71476 1.85634 9.17925C1.857 9.1683 1.86945 9.15531 1.88519 9.15269C2.21308 9.09649 2.53441 9.02357 2.85115 8.93301C3.26167 8.81444 3.58105 8.496 3.70105 8.08823C3.82631 7.67214 3.99484 7.26582 4.20272 6.87957C4.4047 6.50958 4.40338 6.05821 4.19812 5.68586C4.0368 5.39581 3.86171 5.11776 3.67219 4.84882C3.66038 4.83276 3.66104 4.81518 3.67087 4.80285C4.00926 4.39024 4.39092 4.0089 4.80603 3.66731C4.81521 3.66042 4.83292 3.6599 4.84604 3.66934C5.11753 3.86122 5.39624 4.03677 5.68412 4.19705C6.05792 4.40329 6.50975 4.40421 6.88223 4.20052C7.2652 3.99493 7.67178 3.8266 8.09148 3.70049C8.4961 3.58173 8.81479 3.26191 8.93283 2.85342C9.02333 2.53393 9.09613 2.21352 9.15252 1.8893C9.1558 1.86982 9.16826 1.85782 9.18466 1.85612C9.71518 1.80359 10.2549 1.80359 10.79 1.85612C10.8011 1.8573 10.8143 1.8695 10.8169 1.88543V1.88812Z" fill="#A8ABB6"/>
<path fill-rule="evenodd" clip-rule="evenodd" d="M9.98477 6.14319C7.86398 6.14319 6.14258 7.86474 6.14258 9.98526C6.14258 12.1057 7.86398 13.8273 9.98477 13.8273C12.1049 13.8273 13.827 12.1057 13.827 9.98526C13.827 7.86474 12.1049 6.14319 9.98477 6.14319ZM9.98477 7.14961C11.5495 7.14961 12.8203 8.42025 12.8203 9.98526C12.8203 11.5503 11.5495 12.8208 9.98477 12.8208C8.41943 12.8208 7.14919 11.5503 7.14919 9.98526C7.14919 8.42025 8.41943 7.14961 9.98477 7.14961Z" fill="#A8ABB6"/>
</g>
<defs>
<clipPath id="clip0">
<rect width="20" height="20" fill="white"/>
</clipPath>
</defs>
</svg>
