<svg width="84" height="62" viewBox="0 0 84 62" fill="none" xmlns="http://www.w3.org/2000/svg">
<path d="M16 0C7.17069 0 0 7.1707 0 16V46C0 54.8293 7.17069 62 16 62H68C76.8293 62 84 54.8293 84 46V16C84 7.1707 76.8293 0 68 0H16V0ZM16 4H68C74.6825 4 80 9.3175 80 16V46C80 52.6825 74.6825 58 68 58H16C9.3175 58 4 52.6825 4 46V16C4 9.3175 9.3175 4 16 4V4ZM33.8438 16C33.3409 16.0395 32.8715 16.2674 32.5296 16.6383C32.1877 17.0092 31.9985 17.4956 32 18V44C31.993 44.4759 32.1559 44.9388 32.4594 45.3054C32.763 45.6719 33.1874 45.9182 33.6562 46C34.1297 46.0847 34.6179 45.996 35.0312 45.75L57.0312 32.75C57.3363 32.5747 57.5898 32.3221 57.7661 32.0176C57.9423 31.7131 58.0351 31.3675 58.0351 31.0156C58.0351 30.6638 57.9423 30.3181 57.7661 30.0136C57.5898 29.7091 57.3363 29.4564 57.0312 29.2812L35.0312 16.2812C34.6744 16.066 34.2592 15.9677 33.8438 16V16ZM36 21.5312L52.0312 31L36 40.5V21.5312Z" fill="#313131"/>
</svg>
