<svg width="20" height="20" viewBox="0 0 20 20" fill="none" xmlns="http://www.w3.org/2000/svg">
<path fill-rule="evenodd" clip-rule="evenodd" d="M19.8083 4.58029C19.8083 3.62023 19.0302 2.84231 18.0703 2.84231C14.7754 2.84231 5.22353 2.84231 1.92863 2.84231C0.9688 2.84231 0.190674 3.62023 0.190674 4.58029C0.190674 7.05949 0.190674 12.9416 0.190674 15.4211C0.190674 16.3809 0.9688 17.1591 1.92863 17.1591C5.22353 17.1591 14.7754 17.1591 18.0703 17.1591C19.0302 17.1591 19.8083 16.3809 19.8083 15.4211C19.8083 12.9416 19.8083 7.05949 19.8083 4.58029ZM18.5988 4.58029V15.4211C18.5988 15.713 18.3622 15.9494 18.0703 15.9494C14.7754 15.9494 5.22353 15.9494 1.92863 15.9494C1.63681 15.9494 1.4002 15.713 1.4002 15.4211C1.4002 12.9416 1.4002 7.05949 1.4002 4.58029C1.4002 4.28841 1.63681 4.05172 1.92863 4.05172C5.22353 4.05172 14.7754 4.05172 18.0703 4.05172C18.3622 4.05172 18.5988 4.28841 18.5988 4.58029Z" fill="#A8ABB6"/>
<path fill-rule="evenodd" clip-rule="evenodd" d="M8.39884 6.40294C8.21185 6.29467 7.98132 6.29454 7.79432 6.40251C7.60671 6.51054 7.49146 6.71023 7.49146 6.9264V13.0739C7.49146 13.3021 7.61959 13.5108 7.82314 13.6136C8.0273 13.7166 8.27131 13.6961 8.45463 13.5608L13.1289 10.1173C13.2932 9.9963 13.3851 9.80066 13.3741 9.59699C13.3625 9.39338 13.2497 9.20908 13.0731 9.10694L8.39884 6.40294ZM8.70109 11.8772L11.6679 9.69134L8.70109 7.97498V11.8772Z" fill="#A8ABB6"/>
</svg>
