<svg width="15" height="14" viewBox="0 0 15 14" fill="none" xmlns="http://www.w3.org/2000/svg">
<path d="M13.3519 1.41709L7.02974 7.38032L4.40459 4.90591C4.18448 4.6983 3.82659 4.6983 3.60648 4.90591C3.38638 5.11352 3.38638 5.45109 3.60648 5.6587L6.63069 8.51119C6.74164 8.61584 6.8848 8.66648 7.02974 8.66648C7.17469 8.66648 7.31785 8.61415 7.4288 8.51119L14.1518 2.17157C14.3719 1.96396 14.3719 1.62639 14.1518 1.41878C13.9299 1.20948 13.5738 1.20948 13.3519 1.41709Z" fill="#01FFC2"/>
<path d="M7.03441 1.06504C8.45704 1.06504 9.76157 1.5444 10.7834 2.33769L11.585 1.58153C10.3593 0.595817 8.77378 0 7.03441 0C3.15663 0 0 2.9774 0 6.635C0 10.2926 3.15663 13.27 7.03441 13.27C10.9122 13.27 14.0635 10.2926 14.0635 6.635C14.0635 5.78263 13.8935 4.96908 13.5785 4.21798L12.6927 5.05347C12.8502 5.55477 12.9361 6.08644 12.9361 6.635C12.9361 9.70692 10.2877 12.205 7.0362 12.205C3.77936 12.205 1.13095 9.70692 1.13095 6.635C1.12916 3.56308 3.77757 1.06504 7.03441 1.06504Z" fill="#01FFC2"/>
</svg>
